<svg width="100" height="100" viewBox="0 0 100 100" fill="none" xmlns="http://www.w3.org/2000/svg">
<rect width="100" height="100" fill="black"/>
<path d="M22.902 64V63.59L23.763 63.262C24.6377 62.9067 25.075 62.2097 25.075 61.171V39.769C25.075 38.6757 24.6377 37.9787 23.763 37.678L22.902 37.35V36.94H33.726C36.6233 36.94 39.1107 37.4867 41.188 38.58C43.2927 39.646 44.9053 41.1903 46.026 43.213C47.174 45.2083 47.748 47.6137 47.748 50.429C47.748 53.299 47.133 55.7453 45.903 57.768C44.673 59.7907 42.951 61.335 40.737 62.401C38.5503 63.467 35.9673 64 32.988 64H22.902ZM31.225 63.18H32.988C34.956 63.18 36.5413 62.7973 37.744 62.032C38.9467 61.2393 39.8213 59.9273 40.368 58.096C40.942 56.2373 41.229 53.6953 41.229 50.47C41.229 47.2447 40.942 44.7163 40.368 42.885C39.8213 41.0263 38.9603 39.7143 37.785 38.949C36.6097 38.1563 35.0653 37.76 33.152 37.76H31.225V63.18ZM64.1506 64.738C61.3626 64.738 58.9026 64.164 56.7706 63.016C54.6659 61.8407 53.0122 60.187 51.8096 58.055C50.6342 55.8957 50.0466 53.3537 50.0466 50.429C50.0466 47.5863 50.6342 45.099 51.8096 42.967C52.9849 40.835 54.6796 39.1813 56.8936 38.006C59.1349 36.8033 61.8409 36.202 65.0116 36.202C66.4602 36.202 67.7996 36.366 69.0296 36.694C70.2869 37.022 71.4759 37.5003 72.5966 38.129L72.7606 43.869H72.3506L70.0546 39.605C69.6992 38.9217 69.3712 38.4297 69.0706 38.129C68.7699 37.8283 68.3872 37.596 67.9226 37.432C67.4852 37.2953 67.0752 37.1997 66.6926 37.145C66.3372 37.063 65.8589 37.022 65.2576 37.022C63.5629 37.022 62.0596 37.473 60.7476 38.375C59.4629 39.277 58.4652 40.712 57.7546 42.68C57.0439 44.648 56.6886 47.231 56.6886 50.429C56.6886 53.5997 57.0166 56.1827 57.6726 58.178C58.3559 60.1733 59.3126 61.6357 60.5426 62.565C61.7726 63.467 63.1939 63.918 64.8066 63.918C65.0526 63.918 65.2849 63.9043 65.5036 63.877C65.7496 63.8223 65.9819 63.7677 66.2006 63.713C66.7199 63.631 67.0616 63.4123 67.2256 63.057C67.3896 62.7017 67.4716 62.278 67.4716 61.786V53.668C67.4716 52.602 66.9249 51.946 65.8316 51.7L63.9456 51.208V50.798H75.5076V51.208L74.9336 51.372C73.8949 51.7 73.3756 52.3833 73.3756 53.422V62.319C71.9542 63.1117 70.5056 63.713 69.0296 64.123C67.5809 64.533 65.9546 64.738 64.1506 64.738Z" fill="#BBF7D0" fill-opacity="0.7"/>
</svg>
